<?xml version="1.0" encoding="UTF-8" standalone="no"?>
<!DOCTYPE svg PUBLIC "-//W3C//DTD SVG 1.1//EN"
 "http://www.w3.org/Graphics/SVG/1.1/DTD/svg11.dtd">
<!-- Generated by graphviz version 2.43.0 (0)
 -->
<!-- Title: %3 Pages: 1 -->
<svg width="929pt" height="1052pt"
 viewBox="0.00 0.00 929.41 1052.00" xmlns="http://www.w3.org/2000/svg" xmlns:xlink="http://www.w3.org/1999/xlink">
<g id="graph0" class="graph" transform="scale(1 1) rotate(0) translate(4 1048)">
<title>%3</title>
<polygon fill="white" stroke="transparent" points="-4,4 -4,-1048 925.41,-1048 925.41,4 -4,4"/>
<!-- 1 -->
<g id="node1" class="node">
<title>1</title>
<ellipse fill="none" stroke="black" cx="255.43" cy="-1026" rx="102.08" ry="18"/>
<text text-anchor="middle" x="255.43" y="-1022.3" font-family="Times,serif" font-size="14.00">Docente se registra</text>
</g>
<!-- 2 -->
<g id="node2" class="node">
<title>2</title>
<ellipse fill="none" stroke="black" cx="255.43" cy="-954" rx="167.07" ry="18"/>
<text text-anchor="middle" x="255.43" y="-950.3" font-family="Times,serif" font-size="14.00">Registro de Institución (Opcional)</text>
</g>
<!-- 1&#45;&gt;2 -->
<g id="edge1" class="edge">
<title>1&#45;&gt;2</title>
<path fill="none" stroke="black" d="M255.43,-1007.7C255.43,-999.98 255.43,-990.71 255.43,-982.11"/>
<polygon fill="black" stroke="black" points="258.93,-982.1 255.43,-972.1 251.93,-982.1 258.93,-982.1"/>
</g>
<!-- 3 -->
<g id="node3" class="node">
<title>3</title>
<ellipse fill="none" stroke="black" cx="255.43" cy="-882" rx="206.06" ry="18"/>
<text text-anchor="middle" x="255.43" y="-878.3" font-family="Times,serif" font-size="14.00">Creación de contraseña con link en correo</text>
</g>
<!-- 2&#45;&gt;3 -->
<g id="edge2" class="edge">
<title>2&#45;&gt;3</title>
<path fill="none" stroke="black" d="M255.43,-935.7C255.43,-927.98 255.43,-918.71 255.43,-910.11"/>
<polygon fill="black" stroke="black" points="258.93,-910.1 255.43,-900.1 251.93,-910.1 258.93,-910.1"/>
</g>
<!-- 4 -->
<g id="node4" class="node">
<title>4</title>
<ellipse fill="none" stroke="black" cx="255.43" cy="-810" rx="116.18" ry="18"/>
<text text-anchor="middle" x="255.43" y="-806.3" font-family="Times,serif" font-size="14.00">Login con credenciales</text>
</g>
<!-- 3&#45;&gt;4 -->
<g id="edge3" class="edge">
<title>3&#45;&gt;4</title>
<path fill="none" stroke="black" d="M255.43,-863.7C255.43,-855.98 255.43,-846.71 255.43,-838.11"/>
<polygon fill="black" stroke="black" points="258.93,-838.1 255.43,-828.1 251.93,-838.1 258.93,-838.1"/>
</g>
<!-- 5 -->
<g id="node5" class="node">
<title>5</title>
<ellipse fill="none" stroke="black" cx="255.43" cy="-738" rx="209.06" ry="18"/>
<text text-anchor="middle" x="255.43" y="-734.3" font-family="Times,serif" font-size="14.00">Inicio: Bienvenida y pasos del intercolegial</text>
</g>
<!-- 4&#45;&gt;5 -->
<g id="edge4" class="edge">
<title>4&#45;&gt;5</title>
<path fill="none" stroke="black" d="M255.43,-791.7C255.43,-783.98 255.43,-774.71 255.43,-766.11"/>
<polygon fill="black" stroke="black" points="258.93,-766.1 255.43,-756.1 251.93,-766.1 258.93,-766.1"/>
</g>
<!-- 6 -->
<g id="node6" class="node">
<title>6</title>
<ellipse fill="none" stroke="black" cx="255.43" cy="-666" rx="255.35" ry="18"/>
<text text-anchor="middle" x="255.43" y="-662.3" font-family="Times,serif" font-size="14.00">Inscripción y Matriculación: Descarga plantilla Excel</text>
</g>
<!-- 5&#45;&gt;6 -->
<g id="edge5" class="edge">
<title>5&#45;&gt;6</title>
<path fill="none" stroke="black" d="M255.43,-719.7C255.43,-711.98 255.43,-702.71 255.43,-694.11"/>
<polygon fill="black" stroke="black" points="258.93,-694.1 255.43,-684.1 251.93,-694.1 258.93,-694.1"/>
</g>
<!-- 7 -->
<g id="node7" class="node">
<title>7</title>
<ellipse fill="none" stroke="black" cx="255.43" cy="-594" rx="180.87" ry="18"/>
<text text-anchor="middle" x="255.43" y="-590.3" font-family="Times,serif" font-size="14.00">Sube Excel con datos de estudiantes</text>
</g>
<!-- 6&#45;&gt;7 -->
<g id="edge6" class="edge">
<title>6&#45;&gt;7</title>
<path fill="none" stroke="black" d="M255.43,-647.7C255.43,-639.98 255.43,-630.71 255.43,-622.11"/>
<polygon fill="black" stroke="black" points="258.93,-622.1 255.43,-612.1 251.93,-622.1 258.93,-622.1"/>
</g>
<!-- 8 -->
<g id="node8" class="node">
<title>8</title>
<ellipse fill="none" stroke="black" cx="255.43" cy="-522" rx="154.07" ry="18"/>
<text text-anchor="middle" x="255.43" y="-518.3" font-family="Times,serif" font-size="14.00">Validación de formato de datos</text>
</g>
<!-- 7&#45;&gt;8 -->
<g id="edge7" class="edge">
<title>7&#45;&gt;8</title>
<path fill="none" stroke="black" d="M255.43,-575.7C255.43,-567.98 255.43,-558.71 255.43,-550.11"/>
<polygon fill="black" stroke="black" points="258.93,-550.1 255.43,-540.1 251.93,-550.1 258.93,-550.1"/>
</g>
<!-- 9 -->
<g id="node9" class="node">
<title>9</title>
<ellipse fill="none" stroke="black" cx="255.43" cy="-450" rx="225.56" ry="18"/>
<text text-anchor="middle" x="255.43" y="-446.3" font-family="Times,serif" font-size="14.00">Corrección de errores o confirmación de datos</text>
</g>
<!-- 8&#45;&gt;9 -->
<g id="edge8" class="edge">
<title>8&#45;&gt;9</title>
<path fill="none" stroke="black" d="M255.43,-503.7C255.43,-495.98 255.43,-486.71 255.43,-478.11"/>
<polygon fill="black" stroke="black" points="258.93,-478.1 255.43,-468.1 251.93,-478.1 258.93,-478.1"/>
</g>
<!-- 10 -->
<g id="node10" class="node">
<title>10</title>
<ellipse fill="none" stroke="black" cx="255.43" cy="-378" rx="190.37" ry="18"/>
<text text-anchor="middle" x="255.43" y="-374.3" font-family="Times,serif" font-size="14.00">Confirmación de correo de estudiantes</text>
</g>
<!-- 9&#45;&gt;10 -->
<g id="edge9" class="edge">
<title>9&#45;&gt;10</title>
<path fill="none" stroke="black" d="M255.43,-431.7C255.43,-423.98 255.43,-414.71 255.43,-406.11"/>
<polygon fill="black" stroke="black" points="258.93,-406.1 255.43,-396.1 251.93,-406.1 258.93,-406.1"/>
</g>
<!-- 11 -->
<g id="node11" class="node">
<title>11</title>
<ellipse fill="none" stroke="black" cx="255.43" cy="-306" rx="112.38" ry="18"/>
<text text-anchor="middle" x="255.43" y="-302.3" font-family="Times,serif" font-size="14.00">Matriculación con Bot</text>
</g>
<!-- 10&#45;&gt;11 -->
<g id="edge10" class="edge">
<title>10&#45;&gt;11</title>
<path fill="none" stroke="black" d="M255.43,-359.7C255.43,-351.98 255.43,-342.71 255.43,-334.11"/>
<polygon fill="black" stroke="black" points="258.93,-334.1 255.43,-324.1 251.93,-334.1 258.93,-334.1"/>
</g>
<!-- 12 -->
<g id="node12" class="node">
<title>12</title>
<ellipse fill="none" stroke="black" cx="255.43" cy="-234" rx="186.57" ry="18"/>
<text text-anchor="middle" x="255.43" y="-230.3" font-family="Times,serif" font-size="14.00">Estado de matriculación: Uno por uno</text>
</g>
<!-- 11&#45;&gt;12 -->
<g id="edge11" class="edge">
<title>11&#45;&gt;12</title>
<path fill="none" stroke="black" d="M255.43,-287.7C255.43,-279.98 255.43,-270.71 255.43,-262.11"/>
<polygon fill="black" stroke="black" points="258.93,-262.1 255.43,-252.1 251.93,-262.1 258.93,-262.1"/>
</g>
<!-- 13 -->
<g id="node13" class="node">
<title>13</title>
<ellipse fill="none" stroke="black" cx="255.43" cy="-162" rx="175.47" ry="18"/>
<text text-anchor="middle" x="255.43" y="-158.3" font-family="Times,serif" font-size="14.00">Lista de participantes matriculados</text>
</g>
<!-- 12&#45;&gt;13 -->
<g id="edge12" class="edge">
<title>12&#45;&gt;13</title>
<path fill="none" stroke="black" d="M255.43,-215.7C255.43,-207.98 255.43,-198.71 255.43,-190.11"/>
<polygon fill="black" stroke="black" points="258.93,-190.1 255.43,-180.1 251.93,-190.1 258.93,-190.1"/>
</g>
<!-- 14 -->
<g id="node14" class="node">
<title>14</title>
<ellipse fill="none" stroke="black" cx="255.43" cy="-90" rx="254.25" ry="18"/>
<text text-anchor="middle" x="255.43" y="-86.3" font-family="Times,serif" font-size="14.00">Progreso de los participantes (Datos de otra página)</text>
</g>
<!-- 13&#45;&gt;14 -->
<g id="edge13" class="edge">
<title>13&#45;&gt;14</title>
<path fill="none" stroke="black" d="M255.43,-143.7C255.43,-135.98 255.43,-126.71 255.43,-118.11"/>
<polygon fill="black" stroke="black" points="258.93,-118.1 255.43,-108.1 251.93,-118.1 258.93,-118.1"/>
</g>
<!-- 15 -->
<g id="node15" class="node">
<title>15</title>
<ellipse fill="none" stroke="black" cx="255.43" cy="-18" rx="209.86" ry="18"/>
<text text-anchor="middle" x="255.43" y="-14.3" font-family="Times,serif" font-size="14.00">Edición o eliminación de datos por docente</text>
</g>
<!-- 14&#45;&gt;15 -->
<g id="edge14" class="edge">
<title>14&#45;&gt;15</title>
<path fill="none" stroke="black" d="M255.43,-71.7C255.43,-63.98 255.43,-54.71 255.43,-46.11"/>
<polygon fill="black" stroke="black" points="258.93,-46.1 255.43,-36.1 251.93,-46.1 258.93,-46.1"/>
</g>
<!-- A1 -->
<g id="node16" class="node">
<title>A1</title>
<ellipse fill="none" stroke="black" cx="700.43" cy="-1026" rx="188.47" ry="18"/>
<text text-anchor="middle" x="700.43" y="-1022.3" font-family="Times,serif" font-size="14.00">Administrador registra intercolegiales</text>
</g>
<!-- A2 -->
<g id="node17" class="node">
<title>A2</title>
<ellipse fill="none" stroke="black" cx="700.43" cy="-954" rx="209.86" ry="18"/>
<text text-anchor="middle" x="700.43" y="-950.3" font-family="Times,serif" font-size="14.00">Puede actuar como docente si es necesario</text>
</g>
<!-- A1&#45;&gt;A2 -->
<g id="edge15" class="edge">
<title>A1&#45;&gt;A2</title>
<path fill="none" stroke="black" d="M700.43,-1007.7C700.43,-999.98 700.43,-990.71 700.43,-982.11"/>
<polygon fill="black" stroke="black" points="703.93,-982.1 700.43,-972.1 696.93,-982.1 703.93,-982.1"/>
</g>
<!-- A3 -->
<g id="node18" class="node">
<title>A3</title>
<ellipse fill="none" stroke="black" cx="700.43" cy="-882" rx="220.96" ry="18"/>
<text text-anchor="middle" x="700.43" y="-878.3" font-family="Times,serif" font-size="14.00">Registra problemas o incidencias del sistema</text>
</g>
<!-- A2&#45;&gt;A3 -->
<g id="edge16" class="edge">
<title>A2&#45;&gt;A3</title>
<path fill="none" stroke="black" d="M700.43,-935.7C700.43,-927.98 700.43,-918.71 700.43,-910.11"/>
<polygon fill="black" stroke="black" points="703.93,-910.1 700.43,-900.1 696.93,-910.1 703.93,-910.1"/>
</g>
</g>
</svg>
